<svg data-v-423bf9ae="" xmlns="http://www.w3.org/2000/svg" viewBox="0 0 395 90" class="iconLeft"><!----><!----><!----><g data-v-423bf9ae="" id="a07ea868-3cdd-42dc-b331-be7f41073738" fill="black" transform="matrix(3.6443607807159424,0,0,3.6443607807159424,144.21128845214844,3.6182849407196045)"><path d="M1.86 5.19L1.86 5.19Q1.88 5.03 2.04 4.81L2.04 4.81L2.04 4.81Q2.21 4.59 2.39 4.47L2.39 4.47L2.39 4.47Q2.58 4.34 2.69 4.31L2.69 4.31L2.69 4.31Q2.94 4.24 2.93 4.47L2.93 4.47L2.07 14.55L2.07 14.55Q2.06 14.70 1.89 14.92L1.89 14.92L1.89 14.92Q1.72 15.15 1.54 15.27L1.54 15.27L1.54 15.27Q1.36 15.40 1.25 15.43L1.25 15.43L1.25 15.43Q0.99 15.50 1.01 15.27L1.01 15.27L1.86 5.19ZM9.98 9.47L9.98 9.47L9.98 9.47Q9.86 9.69 9.64 9.88L9.64 9.88L9.64 9.88Q9.42 10.07 9.24 10.11L9.24 10.11L9.24 10.11Q9.06 10.15 9.02 10.04L9.02 10.04L9.02 10.04Q8.78 9.39 8.25 8.94L8.25 8.94L8.25 8.94Q7.73 8.48 7.15 8.40L7.15 8.40L7.15 8.40Q6.58 8.32 6.26 8.50L6.26 8.50L6.26 8.50Q5.98 9.09 6.41 9.74L6.41 9.74L6.41 9.74Q6.79 10.32 7.92 10.77L7.92 10.77L7.92 10.77Q8.69 11.07 8.95 11.21L8.95 11.21L8.95 11.21Q10.07 11.90 10.04 12.98L10.04 12.98L10.04 12.98Q10.01 13.83 9.23 14.62L9.23 14.62L9.23 14.62Q7.80 16.03 5.99 15.15L5.99 15.15L5.99 15.15Q4.97 14.64 4.31 13.59L4.31 13.59L4.31 13.59Q4.26 13.50 4.36 13.29L4.36 13.29L4.36 13.29Q4.47 13.08 4.68 12.88L4.68 12.88L4.68 12.88Q4.89 12.68 5.08 12.61L5.08 12.61L5.08 12.61Q5.28 12.54 5.33 12.64L5.33 12.64L5.33 12.64Q6.09 13.83 7.27 14.25L7.27 14.25L7.27 14.25Q8.02 14.52 8.62 14.32L8.62 14.32L8.62 14.32Q8.82 14.25 8.86 14.20L8.86 14.20L8.86 14.20Q9.04 13.89 8.93 13.40L8.93 13.40L8.93 13.40Q8.74 12.50 7.38 11.96L7.38 11.96L7.38 11.96Q7.32 11.93 7.06 11.83L7.06 11.83L7.06 11.83Q6.30 11.54 6.05 11.34L6.05 11.34L6.05 11.34Q4.77 10.42 5.21 9.13L5.21 9.13L5.21 9.13Q5.38 8.61 5.77 8.20L5.77 8.20L5.77 8.20Q6.76 7.17 7.92 7.34L7.92 7.34L7.92 7.34Q8.65 7.43 9.23 7.93L9.23 7.93L9.23 7.93Q9.80 8.43 10.05 9.14L10.05 9.14L10.05 9.14Q10.09 9.25 9.98 9.47ZM12.31 4.02L12.31 4.02Q12.32 3.85 12.49 3.63L12.49 3.63L12.49 3.63Q12.66 3.40 12.84 3.28L12.84 3.28L12.84 3.28Q13.02 3.16 13.13 3.14L13.13 3.14L13.13 3.14Q13.38 3.07 13.37 3.29L13.37 3.29L12.89 8.54L12.89 8.54Q13.33 8.02 13.91 7.68L13.91 7.68L13.91 7.68Q14.49 7.34 15.08 7.34L15.08 7.34L15.08 7.34Q17.47 7.31 17.12 10.63L17.12 10.63L16.79 14.55L16.79 14.55Q16.77 14.70 16.60 14.92L16.60 14.92L16.60 14.92Q16.44 15.15 16.25 15.27L16.25 15.27L16.25 15.27Q16.07 15.40 15.96 15.43L15.96 15.43L15.96 15.43Q15.71 15.50 15.72 15.27L15.72 15.27L16.06 11.35L16.06 11.35Q16.38 8.39 14.32 8.40L14.32 8.40L14.32 8.40Q13.92 8.40 13.72 8.51L13.72 8.51L13.72 8.51Q13.23 8.79 12.81 10.05L12.81 10.05L12.81 10.05Q12.78 10.14 12.73 10.23L12.73 10.23L12.33 14.55L12.33 14.55Q12.32 14.70 12.15 14.93L12.15 14.93L12.15 14.93Q11.98 15.16 11.80 15.28L11.80 15.28L11.80 15.28Q11.62 15.40 11.51 15.43L11.51 15.43L11.51 15.43Q11.26 15.50 11.27 15.27L11.27 15.27L12.31 4.02ZM19.05 8.22L19.05 8.22Q19.07 8.06 19.24 7.84L19.24 7.84L19.24 7.84Q19.40 7.62 19.59 7.50L19.59 7.50L19.59 7.50Q19.77 7.38 19.89 7.35L19.89 7.35L19.89 7.35Q20.15 7.29 20.12 7.50L20.12 7.50L20.05 8.12L20.05 8.12Q21.13 7.21 22.27 7.34L22.27 7.34L22.27 7.34Q22.47 7.36 22.37 7.63L22.37 7.63L22.37 7.63Q22.23 7.99 21.91 8.20L21.91 8.20L21.91 8.20Q21.59 8.41 21.46 8.40L21.46 8.40L21.46 8.40Q20.75 8.32 20.24 8.69L20.24 8.69L20.24 8.69Q20.01 8.88 19.91 9.55L19.91 9.55L19.38 14.56L19.38 14.56Q19.36 14.73 19.19 14.95L19.19 14.95L19.19 14.95Q19.03 15.16 18.84 15.28L18.84 15.28L18.84 15.28Q18.66 15.40 18.54 15.43L18.54 15.43L18.54 15.43Q18.28 15.48 18.31 15.26L18.31 15.26L18.83 10.36L18.83 10.36Q18.83 10.33 18.84 10.25L18.84 10.25L19.05 8.22ZM28.85 13.96L28.85 13.96L28.85 13.96Q29.02 13.93 29.05 14.06L29.05 14.06L29.05 14.06Q29.08 14.20 28.93 14.42L28.93 14.42L28.93 14.42Q28.78 14.64 28.43 14.92L28.43 14.92L28.43 14.92Q28.08 15.20 27.69 15.36L27.69 15.36L27.69 15.36Q26.92 15.67 26.74 15.08L26.74 15.08L26.74 15.08Q26.66 14.84 26.67 14.20L26.67 14.20L26.67 14.20Q25.94 15.08 25.20 15.34L25.20 15.34L25.20 15.34Q24.46 15.61 23.81 15.43L23.81 15.43L23.81 15.43Q21.81 14.87 22.61 10.81L22.61 10.81L22.61 10.81Q22.88 9.46 23.55 8.60L23.55 8.60L23.55 8.60Q24.70 7.11 26.36 7.34L26.36 7.34L26.36 7.34Q27.06 7.42 27.45 7.85L27.45 7.85L27.45 7.85Q27.78 7.42 28.13 7.34L28.13 7.34L28.13 7.34Q28.24 7.31 28.30 7.36L28.30 7.36L28.30 7.36Q28.36 7.41 28.35 7.52L28.35 7.52L28.35 7.52Q27.54 13.44 27.78 14.18L27.78 14.18L27.78 14.18Q27.89 14.52 28.14 14.39L28.14 14.39L28.14 14.39Q28.25 14.34 28.46 14.16L28.46 14.16L28.46 14.16Q28.67 13.99 28.85 13.96ZM26.74 12.80L26.74 12.80L26.74 12.80Q26.84 11.68 26.88 11.37L26.88 11.37L26.88 11.37Q27.24 8.62 25.52 8.40L25.52 8.40L25.52 8.40Q25.10 8.34 24.79 8.41L24.79 8.41L24.79 8.41Q24.37 8.50 24.22 8.68L24.22 8.68L24.22 8.68Q23.87 9.13 23.65 10.28L23.65 10.28L23.65 10.28Q23.42 11.42 23.45 12.31L23.45 12.31L23.45 12.31Q23.53 14.04 24.68 14.36L24.68 14.36L24.68 14.36Q25.56 14.62 26.04 14.04L26.04 14.04L26.04 14.04Q26.39 13.62 26.74 12.80ZM34.96 7.78L34.96 7.78L34.96 7.78Q35.25 7.41 35.57 7.34L35.57 7.34L35.57 7.34Q35.83 7.27 35.81 7.49L35.81 7.49L34.86 18.69L34.86 18.69Q34.85 18.84 34.68 19.07L34.68 19.07L34.68 19.07Q34.51 19.29 34.34 19.42L34.34 19.42L34.34 19.42Q34.16 19.54 34.03 19.57L34.03 19.57L34.03 19.57Q33.78 19.64 33.80 19.42L33.80 19.42L34.24 14.18L34.24 14.18Q33.52 15.06 32.77 15.34L32.77 15.34L32.77 15.34Q32.03 15.61 31.39 15.43L31.39 15.43L31.39 15.43Q29.39 14.87 30.18 10.81L30.18 10.81L30.18 10.81Q30.45 9.46 31.12 8.60L31.12 8.60L31.12 8.60Q32.27 7.11 33.94 7.34L33.94 7.34L33.94 7.34Q34.57 7.41 34.96 7.78ZM34.37 12.68L34.47 11.48L34.47 11.48Q34.44 11.44 34.45 11.37L34.45 11.37L34.45 11.37Q34.82 8.62 33.10 8.40L33.10 8.40L33.10 8.40Q32.68 8.34 32.37 8.41L32.37 8.41L32.37 8.41Q31.95 8.50 31.79 8.68L31.79 8.68L31.79 8.68Q31.44 9.13 31.22 10.28L31.22 10.28L31.22 10.28Q31.00 11.42 31.02 12.31L31.02 12.31L31.02 12.31Q31.11 14.04 32.26 14.36L32.26 14.36L32.26 14.36Q33.14 14.62 33.61 14.04L33.61 14.04L33.61 14.04Q33.98 13.61 34.34 12.74L34.34 12.74L34.34 12.74Q34.36 12.71 34.37 12.68L34.37 12.68ZM40.11 5.19L40.11 5.19Q40.12 5.03 40.29 4.80L40.29 4.80L40.29 4.80Q40.46 4.58 40.64 4.46L40.64 4.46L40.64 4.46Q40.82 4.34 40.94 4.31L40.94 4.31L40.94 4.31Q41.19 4.24 41.17 4.47L41.17 4.47L40.66 10.30L45.61 4.70L45.61 4.70Q45.79 4.49 46.01 4.38L46.01 4.38L46.01 4.38Q46.23 4.26 46.34 4.30L46.34 4.30L46.34 4.30Q46.45 4.35 46.40 4.54L46.40 4.54L46.40 4.54Q46.34 4.73 46.14 4.96L46.14 4.96L43.04 8.47L46.23 14.45L46.23 14.45Q46.28 14.55 46.17 14.76L46.17 14.76L46.17 14.76Q46.06 14.98 45.85 15.17L45.85 15.17L45.85 15.17Q45.64 15.36 45.44 15.42L45.44 15.42L45.44 15.42Q45.25 15.48 45.19 15.37L45.19 15.37L42.08 9.55L40.57 11.26L40.28 14.55L40.28 14.55Q40.26 14.70 40.10 14.92L40.10 14.92L40.10 14.92Q39.93 15.15 39.75 15.27L39.75 15.27L39.75 15.27Q39.56 15.40 39.45 15.43L39.45 15.43L39.45 15.43Q39.20 15.50 39.21 15.27L39.21 15.27L40.11 5.19ZM53.85 13.96L53.85 13.96L53.85 13.96Q54.03 13.93 54.05 14.06L54.05 14.06L54.05 14.06Q54.08 14.20 53.94 14.42L53.94 14.42L53.94 14.42Q53.79 14.64 53.44 14.92L53.44 14.92L53.44 14.92Q53.09 15.20 52.70 15.36L52.70 15.36L52.70 15.36Q51.93 15.67 51.74 15.08L51.74 15.08L51.74 15.08Q51.66 14.84 51.67 14.20L51.67 14.20L51.67 14.20Q50.95 15.08 50.20 15.34L50.20 15.34L50.20 15.34Q49.46 15.61 48.82 15.43L48.82 15.43L48.82 15.43Q46.82 14.87 47.61 10.81L47.61 10.81L47.61 10.81Q47.88 9.46 48.55 8.60L48.55 8.60L48.55 8.60Q49.70 7.11 51.37 7.34L51.37 7.34L51.37 7.34Q52.07 7.42 52.46 7.85L52.46 7.85L52.46 7.85Q52.78 7.42 53.13 7.34L53.13 7.34L53.13 7.34Q53.24 7.31 53.31 7.36L53.31 7.36L53.31 7.36Q53.37 7.41 53.35 7.52L53.35 7.52L53.35 7.52Q52.54 13.44 52.78 14.18L52.78 14.18L52.78 14.18Q52.89 14.52 53.14 14.39L53.14 14.39L53.14 14.39Q53.26 14.34 53.47 14.16L53.47 14.16L53.47 14.16Q53.68 13.99 53.85 13.96ZM51.74 12.80L51.74 12.80L51.74 12.80Q51.84 11.68 51.88 11.37L51.88 11.37L51.88 11.37Q52.25 8.62 50.53 8.40L50.53 8.40L50.53 8.40Q50.11 8.34 49.80 8.41L49.80 8.41L49.80 8.41Q49.38 8.50 49.22 8.68L49.22 8.68L49.22 8.68Q48.87 9.13 48.65 10.28L48.65 10.28L48.65 10.28Q48.43 11.42 48.45 12.31L48.45 12.31L48.45 12.31Q48.54 14.04 49.69 14.36L49.69 14.36L49.69 14.36Q50.57 14.62 51.04 14.04L51.04 14.04L51.04 14.04Q51.39 13.62 51.74 12.80ZM57.79 15.44L57.79 15.44L57.79 15.44Q56.60 15.44 55.96 14.63L55.96 14.63L55.96 14.63Q55.92 14.77 55.77 14.96L55.77 14.96L55.77 14.96Q55.62 15.15 55.44 15.27L55.44 15.27L55.44 15.27Q55.26 15.40 55.15 15.43L55.15 15.43L55.15 15.43Q54.89 15.50 54.91 15.27L54.91 15.27L55.89 4.09L55.89 4.09Q55.90 3.93 56.07 3.71L56.07 3.71L56.07 3.71Q56.24 3.49 56.42 3.36L56.42 3.36L56.42 3.36Q56.60 3.23 56.71 3.21L56.71 3.21L56.71 3.21Q56.97 3.14 56.95 3.36L56.95 3.36L56.55 8.02L56.55 8.02Q57.30 7.32 58.21 7.34L58.21 7.34L58.21 7.34Q59.99 7.35 60.65 8.40L60.65 8.40L60.65 8.40Q61.31 9.45 60.87 11.35L60.87 11.35L60.87 11.35Q60.44 13.24 59.77 14.20L59.77 14.20L59.77 14.20Q59.32 14.81 58.78 15.13L58.78 15.13L58.78 15.13Q58.24 15.44 57.79 15.44ZM56.29 10.82L56.25 11.40L56.25 11.40Q56.25 11.41 56.25 11.42L56.25 11.42L56.25 11.42Q56.49 14.38 58.58 14.38L58.58 14.38L58.58 14.38Q58.87 14.38 58.92 14.33L58.92 14.33L58.92 14.33Q58.97 14.28 59.00 14.24L59.00 14.24L59.02 14.20L59.02 14.20Q59.46 13.59 59.79 12.14L59.79 12.14L59.79 12.14Q60.21 10.26 59.63 9.34L59.63 9.34L59.63 9.34Q59.05 8.41 57.43 8.40L57.43 8.40L57.43 8.40Q57.02 8.40 56.83 8.53L56.83 8.53L56.83 8.53Q56.64 8.75 56.50 9.43L56.50 9.43L56.50 9.43Q56.36 10.11 56.35 10.42L56.35 10.42L56.35 10.42Q56.34 10.74 56.29 10.82L56.29 10.82ZM62.80 8.22L62.80 8.22Q62.82 8.06 62.99 7.84L62.99 7.84L62.99 7.84Q63.15 7.62 63.34 7.50L63.34 7.50L63.34 7.50Q63.52 7.38 63.64 7.35L63.64 7.35L63.64 7.35Q63.90 7.29 63.87 7.50L63.87 7.50L63.13 14.56L63.13 14.56Q63.11 14.73 62.94 14.95L62.94 14.95L62.94 14.95Q62.78 15.16 62.59 15.28L62.59 15.28L62.59 15.28Q62.41 15.40 62.29 15.43L62.29 15.43L62.29 15.43Q62.03 15.48 62.06 15.26L62.06 15.26L62.80 8.22ZM62.87 5.81L62.87 5.81Q62.89 5.66 63.05 5.43L63.05 5.43L63.05 5.43Q63.21 5.21 63.39 5.08L63.39 5.08L63.39 5.08Q63.57 4.96 63.70 4.93L63.70 4.93L63.70 4.93Q63.95 4.86 63.94 5.08L63.94 5.08L63.87 6.06L63.87 6.06Q63.85 6.22 63.69 6.44L63.69 6.44L63.69 6.44Q63.53 6.66 63.35 6.79L63.35 6.79L63.35 6.79Q63.17 6.92 63.04 6.94L63.04 6.94L63.04 6.94Q62.79 7.01 62.80 6.79L62.80 6.79L62.87 5.81ZM65.46 8.22L65.46 8.22Q65.48 8.06 65.65 7.84L65.65 7.84L65.65 7.84Q65.81 7.62 66.00 7.50L66.00 7.50L66.00 7.50Q66.18 7.38 66.30 7.35L66.30 7.35L66.30 7.35Q66.56 7.29 66.53 7.50L66.53 7.50L66.46 8.12L66.46 8.12Q67.54 7.21 68.68 7.34L68.68 7.34L68.68 7.34Q68.88 7.36 68.78 7.63L68.78 7.63L68.78 7.63Q68.64 7.99 68.32 8.20L68.32 8.20L68.32 8.20Q68.00 8.41 67.87 8.40L67.87 8.40L67.87 8.40Q67.16 8.32 66.65 8.69L66.65 8.69L66.65 8.69Q66.42 8.88 66.32 9.55L66.32 9.55L65.79 14.56L65.79 14.56Q65.77 14.73 65.60 14.95L65.60 14.95L65.60 14.95Q65.44 15.16 65.25 15.28L65.25 15.28L65.25 15.28Q65.07 15.40 64.95 15.43L64.95 15.43L64.95 15.43Q64.69 15.48 64.72 15.26L64.72 15.26L65.24 10.36L65.24 10.36Q65.24 10.33 65.25 10.25L65.25 10.25L65.46 8.22Z"></path></g><!----><g data-v-423bf9ae="" id="f7daaa0b-725e-4d8a-b834-8b149695e1c1" transform="matrix(1.4717570543289185,0,0,1.4717570543289185,-8.798980712890625,-25.368440628051758)" stroke="none" fill="black"><path d="M11.146 45.898l21.073-14.072a2 2 0 1 0-2.222-3.326L8.924 42.572a6.444 6.444 0 0 0-2.871 5.37 6.444 6.444 0 0 0 2.871 5.37l21.073 14.072a1.997 1.997 0 0 0 2.774-.552 2 2 0 0 0-.552-2.774L11.146 49.985a2.422 2.422 0 0 1-1.093-2.044c0-.835.399-1.579 1.093-2.043zM90.076 42.572L69.002 28.5a2 2 0 0 0-2.222 3.326l21.073 14.072a2.422 2.422 0 0 1 1.093 2.043 2.42 2.42 0 0 1-1.093 2.044L66.781 64.058a2 2 0 1 0 2.222 3.326l21.073-14.072a6.444 6.444 0 0 0 2.871-5.37 6.444 6.444 0 0 0-2.871-5.37zM59.221 17.834a2 2 0 0 0-2.513 1.297l-18.227 57.11a2 2 0 1 0 3.81 1.215l18.227-57.109a2 2 0 0 0-1.297-2.513z"></path></g><!----></svg>