<svg width="380" height="297" viewBox="0 0 380 297" fill="none" xmlns="http://www.w3.org/2000/svg">
<rect width="380" height="297" fill="#35DAD2"/>
<path d="M149.352 155.352C150.333 155.352 151.037 155.565 151.464 155.992C151.933 156.419 152.168 156.973 152.168 157.656C152.168 158.765 151.827 159.747 151.144 160.6C150.504 161.453 149.48 161.901 148.072 161.944C144.701 161.987 141.672 161.731 138.984 161.176C135.997 167.533 132.392 172.824 128.168 177.048C123.987 181.229 119.848 183.32 115.752 183.32C111.997 183.32 109.181 181.336 107.304 177.368C105.427 173.357 104.36 168.003 104.104 161.304C101.544 168.728 98.6427 174.253 95.4 177.88C92.2 181.507 88.7867 183.32 85.16 183.32C81.064 183.32 77.9707 180.781 75.88 175.704C73.7893 170.584 72.744 163.715 72.744 155.096C72.744 148.824 73.2987 141.933 74.408 134.424C74.7067 132.291 75.24 130.819 76.008 130.008C76.8187 129.155 78.0773 128.728 79.784 128.728C81.064 128.728 82.0453 129.005 82.728 129.56C83.4533 130.115 83.816 131.139 83.816 132.632C83.816 132.931 83.7733 133.507 83.688 134.36C82.408 143.107 81.768 150.552 81.768 156.696C81.768 162.413 82.2587 166.829 83.24 169.944C84.2213 173.059 85.544 174.616 87.208 174.616C88.7013 174.616 90.4933 173.059 92.584 169.944C94.7173 166.787 96.8293 162.136 98.92 155.992C101.011 149.805 102.781 142.445 104.232 133.912C104.573 131.949 105.192 130.605 106.088 129.88C107.027 129.112 108.285 128.728 109.864 128.728C111.187 128.728 112.147 129.027 112.744 129.624C113.384 130.179 113.704 131.032 113.704 132.184C113.704 132.867 113.661 133.4 113.576 133.784C112.381 140.739 111.784 147.693 111.784 154.648C111.784 159.384 111.933 163.16 112.232 165.976C112.573 168.792 113.192 170.947 114.088 172.44C115.027 173.891 116.371 174.616 118.12 174.616C120.168 174.616 122.451 173.08 124.968 170.008C127.485 166.893 129.789 163.032 131.88 158.424C129.277 156.803 127.315 154.712 125.992 152.152C124.669 149.549 124.008 146.563 124.008 143.192C124.008 139.821 124.52 136.984 125.544 134.68C126.611 132.333 128.04 130.584 129.832 129.432C131.667 128.28 133.693 127.704 135.912 127.704C138.643 127.704 140.797 128.685 142.376 130.648C143.997 132.611 144.808 135.299 144.808 138.712C144.808 143.533 143.763 148.888 141.672 154.776C143.848 155.16 146.408 155.352 149.352 155.352ZM130.472 142.744C130.472 146.925 131.816 150.019 134.504 152.024C136.168 147.245 137 143.299 137 140.184C137 138.392 136.765 137.091 136.296 136.28C135.827 135.427 135.187 135 134.376 135C133.224 135 132.285 135.683 131.56 137.048C130.835 138.371 130.472 140.269 130.472 142.744ZM174.491 168.728C175.046 168.728 175.472 168.984 175.771 169.496C176.112 170.008 176.283 170.712 176.283 171.608C176.283 173.315 175.878 174.637 175.067 175.576C173.488 177.496 171.248 179.267 168.347 180.888C165.488 182.509 162.416 183.32 159.131 183.32C154.651 183.32 151.174 182.104 148.699 179.672C146.224 177.24 144.987 173.912 144.987 169.688C144.987 166.744 145.606 164.013 146.843 161.496C148.08 158.936 149.787 156.909 151.963 155.416C154.182 153.923 156.678 153.176 159.451 153.176C161.926 153.176 163.91 153.923 165.403 155.416C166.896 156.867 167.643 158.851 167.643 161.368C167.643 164.312 166.576 166.851 164.443 168.984C162.352 171.075 158.79 172.739 153.755 173.976C154.822 175.939 156.848 176.92 159.835 176.92C161.755 176.92 163.931 176.259 166.363 174.936C168.838 173.571 170.971 171.8 172.763 169.624C173.275 169.027 173.851 168.728 174.491 168.728ZM158.363 159.448C156.784 159.448 155.44 160.365 154.331 162.2C153.264 164.035 152.731 166.253 152.731 168.856V168.984C155.248 168.387 157.232 167.491 158.683 166.296C160.134 165.101 160.859 163.715 160.859 162.136C160.859 161.325 160.624 160.685 160.155 160.216C159.728 159.704 159.131 159.448 158.363 159.448ZM195.328 168.728C195.883 168.728 196.309 168.984 196.608 169.496C196.949 170.008 197.12 170.712 197.12 171.608C197.12 173.315 196.715 174.637 195.904 175.576C194.069 177.837 192.064 179.693 189.888 181.144C187.755 182.595 185.323 183.32 182.592 183.32C178.837 183.32 176.043 181.613 174.208 178.2C172.416 174.787 171.52 170.371 171.52 164.952C171.52 159.747 172.181 153.816 173.504 147.16C174.869 140.504 176.853 134.787 179.456 130.008C182.101 125.229 185.237 122.84 188.864 122.84C190.912 122.84 192.512 123.8 193.664 125.72C194.859 127.597 195.456 130.307 195.456 133.848C195.456 138.925 194.048 144.813 191.232 151.512C188.416 158.211 184.597 164.845 179.776 171.416C180.075 173.165 180.565 174.424 181.248 175.192C181.931 175.917 182.827 176.28 183.936 176.28C185.685 176.28 187.221 175.789 188.544 174.808C189.867 173.784 191.552 172.056 193.6 169.624C194.112 169.027 194.688 168.728 195.328 168.728ZM187.456 129.176C186.475 129.176 185.365 130.947 184.128 134.488C182.891 138.029 181.803 142.424 180.864 147.672C179.925 152.92 179.413 157.955 179.328 162.776C182.357 157.784 184.768 152.792 186.56 147.8C188.352 142.765 189.248 138.179 189.248 134.04C189.248 130.797 188.651 129.176 187.456 129.176ZM204.171 183.32C199.99 183.32 196.726 182.147 194.379 179.8C192.075 177.411 190.923 174.275 190.923 170.392C190.923 166.936 191.606 163.907 192.971 161.304C194.336 158.701 196.107 156.696 198.283 155.288C200.459 153.88 202.742 153.176 205.131 153.176C207.478 153.176 209.291 153.88 210.571 155.288C211.894 156.653 212.555 158.424 212.555 160.6C212.555 162.392 212.15 163.907 211.339 165.144C210.571 166.381 209.547 167 208.267 167C207.456 167 206.795 166.808 206.283 166.424C205.814 166.04 205.579 165.507 205.579 164.824C205.579 164.525 205.622 164.184 205.707 163.8C205.792 163.416 205.856 163.139 205.899 162.968C206.112 162.328 206.219 161.731 206.219 161.176C206.219 160.621 206.07 160.195 205.771 159.896C205.515 159.597 205.131 159.448 204.619 159.448C203.638 159.448 202.72 159.896 201.867 160.792C201.014 161.645 200.331 162.819 199.819 164.312C199.307 165.805 199.051 167.448 199.051 169.24C199.051 174.189 201.206 176.664 205.515 176.664C207.264 176.664 209.142 176.088 211.147 174.936C213.195 173.741 215.2 171.971 217.163 169.624C217.675 169.027 218.251 168.728 218.891 168.728C219.446 168.728 219.872 168.984 220.171 169.496C220.512 170.008 220.683 170.712 220.683 171.608C220.683 173.229 220.278 174.552 219.467 175.576C217.462 178.051 215.051 179.971 212.235 181.336C209.462 182.659 206.774 183.32 204.171 183.32ZM248.15 163.352C248.704 163.352 249.131 163.629 249.43 164.184C249.728 164.739 249.878 165.443 249.878 166.296C249.878 168.344 249.259 169.56 248.022 169.944C245.462 170.84 242.646 171.352 239.574 171.48C238.763 175.064 237.163 177.944 234.774 180.12C232.384 182.253 229.675 183.32 226.646 183.32C224.086 183.32 221.888 182.701 220.054 181.464C218.262 180.227 216.896 178.584 215.958 176.536C215.019 174.488 214.549 172.269 214.549 169.88C214.549 166.637 215.168 163.757 216.406 161.24C217.643 158.68 219.35 156.696 221.526 155.288C223.702 153.837 226.112 153.112 228.758 153.112C232 153.112 234.603 154.243 236.566 156.504C238.571 158.723 239.744 161.475 240.086 164.76C242.091 164.632 244.48 164.205 247.254 163.48C247.595 163.395 247.894 163.352 248.15 163.352ZM227.158 176.536C228.523 176.536 229.696 175.981 230.678 174.872C231.702 173.763 232.384 172.163 232.726 170.072C231.403 169.176 230.379 168.003 229.654 166.552C228.971 165.101 228.63 163.565 228.63 161.944C228.63 161.261 228.694 160.579 228.822 159.896H228.502C226.795 159.896 225.366 160.728 224.214 162.392C223.104 164.013 222.55 166.317 222.55 169.304C222.55 171.651 222.998 173.443 223.894 174.68C224.832 175.917 225.92 176.536 227.158 176.536ZM248.929 183.32C247.307 183.32 246.155 182.467 245.473 180.76C244.833 179.053 244.513 176.323 244.513 172.568C244.513 167.021 245.302 161.752 246.881 156.76C247.265 155.523 247.883 154.627 248.737 154.072C249.633 153.475 250.87 153.176 252.449 153.176C253.302 153.176 253.899 153.283 254.241 153.496C254.582 153.709 254.753 154.115 254.753 154.712C254.753 155.395 254.433 156.931 253.793 159.32C253.366 161.027 253.025 162.52 252.769 163.8C252.513 165.037 252.299 166.595 252.129 168.472C253.281 165.144 254.646 162.328 256.225 160.024C257.846 157.72 259.489 156.013 261.153 154.904C262.859 153.752 264.459 153.176 265.953 153.176C267.446 153.176 268.491 153.517 269.089 154.2C269.729 154.883 270.049 155.928 270.049 157.336C270.049 158.701 269.643 161.176 268.833 164.76C268.491 166.296 268.257 167.448 268.129 168.216C270.262 162.968 272.63 159.149 275.233 156.76C277.835 154.371 280.267 153.176 282.529 153.176C285.302 153.176 286.689 154.563 286.689 157.336C286.689 159 286.219 162.008 285.281 166.36C284.47 170.072 284.065 172.525 284.065 173.72C284.065 175.427 284.683 176.28 285.921 176.28C286.774 176.28 287.777 175.768 288.929 174.744C290.123 173.677 291.702 171.971 293.665 169.624C294.177 169.027 294.753 168.728 295.393 168.728C295.947 168.728 296.374 168.984 296.673 169.496C297.014 170.008 297.185 170.712 297.185 171.608C297.185 173.315 296.779 174.637 295.969 175.576C294.134 177.837 292.15 179.693 290.017 181.144C287.926 182.595 285.537 183.32 282.849 183.32C280.673 183.32 279.03 182.701 277.921 181.464C276.811 180.184 276.257 178.349 276.257 175.96C276.257 174.765 276.555 172.632 277.153 169.56C277.707 166.872 277.985 165.016 277.985 163.992C277.985 163.309 277.75 162.968 277.281 162.968C276.726 162.968 275.937 163.693 274.913 165.144C273.889 166.552 272.865 168.429 271.841 170.776C270.817 173.123 269.985 175.597 269.345 178.2C268.875 180.248 268.321 181.613 267.681 182.296C267.083 182.979 266.102 183.32 264.737 183.32C263.329 183.32 262.262 182.659 261.537 181.336C260.854 179.971 260.513 178.328 260.513 176.408C260.513 174.787 260.726 172.44 261.153 169.368C261.494 166.637 261.665 164.845 261.665 163.992C261.665 163.309 261.43 162.968 260.961 162.968C260.321 162.968 259.51 163.736 258.529 165.272C257.547 166.808 256.587 168.771 255.649 171.16C254.753 173.549 254.027 175.896 253.473 178.2C253.003 180.205 252.449 181.571 251.809 182.296C251.211 182.979 250.251 183.32 248.929 183.32ZM314.922 170.648C315.476 170.648 315.903 170.904 316.202 171.416C316.543 171.928 316.714 172.632 316.714 173.528C316.714 175.064 316.351 176.387 315.626 177.496C314.431 179.331 312.852 180.76 310.89 181.784C308.97 182.808 306.666 183.32 303.978 183.32C299.882 183.32 296.703 182.104 294.442 179.672C292.18 177.197 291.049 173.869 291.049 169.688C291.049 166.744 291.668 164.013 292.906 161.496C294.143 158.936 295.85 156.909 298.026 155.416C300.244 153.923 302.74 153.176 305.514 153.176C307.988 153.176 309.972 153.923 311.466 155.416C312.959 156.867 313.706 158.851 313.706 161.368C313.706 164.312 312.639 166.851 310.506 168.984C308.415 171.075 304.831 172.739 299.754 173.976C300.778 175.939 302.506 176.92 304.938 176.92C306.687 176.92 308.116 176.515 309.226 175.704C310.378 174.893 311.7 173.528 313.194 171.608C313.706 170.968 314.282 170.648 314.922 170.648ZM304.426 159.448C302.847 159.448 301.503 160.365 300.394 162.2C299.327 164.035 298.794 166.253 298.794 168.856V168.984C301.311 168.387 303.295 167.491 304.746 166.296C306.196 165.101 306.922 163.715 306.922 162.136C306.922 161.325 306.687 160.685 306.218 160.216C305.791 159.704 305.194 159.448 304.426 159.448Z" fill="white"/>
</svg>
